<?xml version="1.0" encoding="utf-8"?>
<!-- Generator: Adobe Illustrator 22.1.0, SVG Export Plug-In . SVG Version: 6.00 Build 0)  -->
<svg version="1.1" id="Layer_1" xmlns="http://www.w3.org/2000/svg" xmlns:xlink="http://www.w3.org/1999/xlink" x="0px" y="0px"
	 viewBox="0 0 171 79" style="enable-background:new 0 0 171 79;" xml:space="preserve">
<style type="text/css">
	.st0{fill:#FFFFFF;}
</style>
<g>
	<g id="XMLID_1_">
		<path class="st0" d="M168.7,44.7c-0.2-0.4-0.2-0.8-0.4-1.2c-0.8-1.7-1.7-3.4-2.5-5.1c-1.8-3.6-3.6-7.3-5.4-10.9
			c-0.8-1.7-1.7-3.4-2.5-5.1c-0.1-0.2-0.3-0.4-0.2-0.5c0.4-0.7,0.7-1.4,0.9-2.1c0-0.1,0.1-0.1,0.2-0.2c1.3-0.8,2.2-2,3.3-3
			c0.1-0.1,0.2-0.3,0.3-0.4c0.3-0.5,0.2-1.1-0.2-1.5c-0.4-0.4-1-0.5-1.5-0.2c-0.3,0.1-0.5,0.3-0.7,0.6c-0.6,0.6-1.3,1.2-1.9,1.9
			c-0.3,0.4-0.6,0.4-1,0.1c-1.4-1.1-3.9-0.9-5,1.1c-0.2,0.4-0.5,0.4-0.9,0.3c-0.7-0.2-1.4-0.6-2.1-0.9c-2.9-1.4-5.9-2.7-8.8-4.1
			c-0.4-0.2-0.5-0.4-0.5-0.8c-0.1-2.3-1.3-3.7-3.6-4.1h-1.5c-0.6,0.2-1.2,0.1-1.8,0.5c-1.2,0.9-1.8,2.1-1.9,3.6
			c0,0.5-0.2,0.7-0.6,0.9c-2.8,1.3-5.6,2.6-8.4,3.9c-0.8,0.4-1.6,0.8-2.4,1.1c-0.4,0.1-0.6,0.1-0.8-0.3c-0.9-1.9-3.5-2.3-5-1.1
			c-0.4,0.3-0.7,0.2-1-0.1c-0.7-0.7-1.4-1.5-2.2-2.2c-0.6-0.6-1.4-0.6-1.9-0.1c-0.5,0.5-0.5,1.3,0.1,1.9c0.9,0.9,1.8,1.9,2.9,2.7
			c0.5,0.4,0.9,0.8,1,1.4c0,0.2,0.2,0.5,0.3,0.6c0.4,0.5,0.3,0.9,0.1,1.4c-1.5,3-2.9,5.9-4.4,8.9c-1.7,3.4-3.3,6.8-5,10.1
			c-0.5,1-1.1,1.9-1.3,3v1.8c0.2,0.7,0.1,1.5,0.4,2.2c1.2,3,3.5,5.1,6.4,6.4c2.6,1.2,5.3,1.6,8.1,1.4c3.8-0.4,7-1.7,9.5-4.5
			c1.3-1.5,2.2-3.2,2.6-5.1c0.2-1.1,0.2-2.2-0.5-3.3c-0.2-0.3-0.2-0.6-0.4-0.9c-2.1-4.3-4.2-8.5-6.3-12.8c-1.2-2.4-2.4-4.9-3.6-7.3
			c-0.4-0.8-0.2-1.3,0.8-1.5c0.5-0.1,1-0.2,1.5-0.4c1.8-0.7,3.5-1.6,5.2-2.4c1.8-0.8,3.6-1.6,5.3-2.5c0.8-0.4,1.2-0.3,1.6,0.4
			c0.2,0.3,0.2,0.7,0.2,1c0,9,0,17.9,0,26.9c0,5.2,0,10.4,0,15.5c0,0.6-0.1,0.9-0.7,1.1c-2.7,1.1-4.5,3-5.3,5.8
			c-0.2,0.8-0.4,0.9-1.2,0.9c-1,0-1.9,0-2.9,0c-0.7,0-1.2,0.4-1.3,1c-0.1,0.6,0.2,0.9,0.9,1.2h25.5c0.8-0.3,1-0.6,0.9-1.2
			c-0.1-0.6-0.6-1-1.3-1c-0.3,0-0.5,0-0.8,0c-0.7,0-1.5,0-2.2,0c-0.8,0-0.9-0.1-1.1-0.9c-0.8-2.8-2.6-4.8-5.3-5.8
			c-0.5-0.2-0.7-0.5-0.7-1c0-14.2,0-28.5,0-42.7c0-1.1,0.8-1.6,1.8-1.1c1.6,0.7,3.1,1.5,4.7,2.2c2.5,1.1,4.9,2.6,7.6,3.2
			c0.6,0.1,0.7,0.6,0.6,1.2c-0.1,0.2-0.2,0.4-0.2,0.5c-1.3,2.6-2.6,5.2-3.8,7.8c-2.1,4.3-4.2,8.6-6.3,12.8c-0.6,1.3-0.7,2.5-0.4,3.8
			c0.9,3.7,3.3,6.2,6.6,7.8c2.8,1.4,5.9,1.8,9,1.4c3.7-0.5,6.8-2,9.2-4.9c1.1-1.3,1.9-2.7,2-4.5c0-0.3,0-0.5,0.1-0.8V44.7z
			 M126.6,43.9c0,0,0,0.1,0,0.2h-21.3c-0.1-0.2,0.1-0.3,0.2-0.5c3.4-6.8,6.7-13.6,10.1-20.4c0.1-0.2,0.1-0.5,0.4-0.5
			c0.3,0,0.3,0.2,0.4,0.4C119.8,30,123.2,36.9,126.6,43.9z M144.5,44c1.1-2.2,2.2-4.5,3.3-6.7c2.3-4.7,4.7-9.5,7-14.2
			c0.1-0.2,0.1-0.5,0.5-0.5c0.4,0,0.4,0.3,0.5,0.5c3.4,6.8,6.7,13.6,10.1,20.4c0.1,0.1,0.1,0.2,0.2,0.4H144.5z"/>
	</g>
	<g>
		<g>
			<path class="st0" d="M18.2,17.4c0-0.2,0.1-0.2,0.2-0.2h2.9c0.2,0,0.2,0.1,0.2,0.2v11.9c0,0.4,0.2,0.7,0.5,0.9
				c0.3,0.2,0.7,0.3,1.3,0.3h0.5c0.3,0,0.6,0.1,0.7,0.3c0.2,0.2,0.2,0.6,0.2,1.1c0,1-0.3,1.5-1,1.5c-0.6,0-1.1-0.1-1.6-0.2
				c-0.4-0.1-0.8-0.5-1.1-1c-0.3,0.5-0.6,0.8-1.1,1c-0.5,0.2-1.2,0.2-2,0.2H6.3c-1,0-1.7-0.2-2.2-0.7c-0.4-0.5-0.6-1.3-0.6-2.3v-5.3
				c0-0.2,0.1-0.2,0.2-0.2h2.9c0.2,0,0.2,0.1,0.2,0.2v4.1c0,0.3,0,0.5,0.1,0.7c0.1,0.2,0.2,0.3,0.3,0.4s0.3,0.1,0.6,0.2
				c0.2,0,0.5,0,0.8,0H17c0.5,0,0.8-0.1,1-0.4c0.1-0.3,0.2-0.8,0.2-1.5V17.4z M12.9,22.6h0.4c0.6,0,1,0.2,1.2,0.5s0.4,0.8,0.4,1.4
				V25c0,0.6-0.1,1.1-0.4,1.3c-0.2,0.2-0.6,0.3-1.1,0.3h-3c-0.2,0-0.2-0.1-0.2-0.2v-0.8c0-0.2,0.1-0.2,0.2-0.2h2.4
				c0.2,0,0.4,0,0.4-0.1c0.1-0.1,0.1-0.2,0.1-0.4c0-0.4,0-0.6-0.1-0.7s-0.3-0.1-0.6-0.1h-1.3c-0.2,0-0.3-0.1-0.3-0.3v-0.7
				c0-0.1,0-0.2,0.1-0.3c0.1-0.1,0.1-0.1,0.1-0.2l1.8-2.1c0.1-0.1,0.2-0.1,0.2-0.1c0.1,0,0.1,0,0.2,0.1c0.1,0.1,0.2,0.1,0.3,0.2
				c0.1,0.1,0.2,0.2,0.3,0.3c0.1,0.1,0.2,0.2,0.2,0.3c0,0.1,0,0.2,0,0.3L12.9,22.6z"/>
			<path class="st0" d="M26.6,23.6c0-0.2,0.1-0.2,0.2-0.2h2.9c0.2,0,0.2,0.1,0.2,0.2v5.7c0,0.4,0.2,0.7,0.5,0.9
				c0.3,0.2,0.7,0.3,1.3,0.3h0.6c0.3,0,0.6,0.1,0.7,0.3c0.2,0.2,0.2,0.6,0.2,1.1c0,1-0.3,1.5-1,1.5c-0.6,0-1.1-0.1-1.6-0.2
				c-0.4-0.1-0.8-0.5-1.1-1c-0.3,0.5-0.6,0.8-1.1,1c-0.5,0.1-1.2,0.2-2.1,0.2H24c-0.3,0-0.6-0.1-0.7-0.3C23.1,33,23,32.6,23,32.1
				s0.1-0.9,0.2-1.2c0.2-0.2,0.4-0.3,0.7-0.3h1.5c0.5,0,0.8-0.1,1-0.4c0.1-0.3,0.2-0.8,0.2-1.5V23.6z M25.1,38.4
				c-0.2,0-0.2-0.1-0.2-0.2v-2.3c0-0.2,0.1-0.2,0.2-0.2h2.4c0.2,0,0.2,0.1,0.2,0.2v2.3c0,0.2-0.1,0.2-0.2,0.2H25.1z M28.8,38.4
				c-0.2,0-0.2-0.1-0.2-0.2v-2.3c0-0.2,0.1-0.2,0.2-0.2h2.4c0.2,0,0.2,0.1,0.2,0.2v2.3c0,0.2-0.1,0.2-0.2,0.2H28.8z"/>
			<path class="st0" d="M39.8,33.7c-0.8,0-1.6-0.1-2.3-0.3s-1.3-0.6-1.8-1.1c-0.2,0.3-0.5,0.6-0.8,0.7c-0.3,0.2-0.6,0.3-0.9,0.4
				s-0.6,0.1-0.9,0.2c-0.3,0-0.5,0-0.8,0c-0.3,0-0.6-0.1-0.7-0.3c-0.2-0.2-0.2-0.6-0.2-1.1c0-0.6,0.1-0.9,0.2-1.2s0.4-0.3,0.7-0.3
				h0.7c0.4,0,0.7-0.2,1-0.5c0.3-0.3,0.5-0.9,0.5-1.7v-0.5c0-0.9,0.1-1.7,0.4-2.4c0.3-0.6,0.7-1.2,1.2-1.5c0.5-0.4,1-0.7,1.7-0.8
				c0.6-0.2,1.3-0.2,2-0.2c0.7,0,1.4,0.1,2,0.3c0.6,0.2,1.2,0.5,1.7,0.9s0.9,1,1.2,1.7c0.3,0.7,0.4,1.6,0.4,2.6c0,1-0.1,1.8-0.4,2.5
				c-0.3,0.7-0.6,1.2-1.1,1.6c-0.5,0.4-1,0.7-1.7,0.9C41.3,33.6,40.6,33.7,39.8,33.7z M39.8,25.9c-1.3,0-2,0.8-2,2.4
				c0,0.9,0.2,1.5,0.5,1.9c0.3,0.4,0.8,0.5,1.5,0.5c0.7,0,1.2-0.2,1.5-0.5c0.3-0.4,0.5-1,0.5-1.9C41.8,26.7,41.1,25.9,39.8,25.9z"/>
			<path class="st0" d="M47.7,17.4c0-0.2,0.1-0.2,0.2-0.2h2.9c0.2,0,0.2,0.1,0.2,0.2v11.9c0,0.5,0.1,0.8,0.3,1
				c0.2,0.2,0.5,0.3,0.9,0.3h0.6c0.3,0,0.6,0.1,0.7,0.3c0.2,0.2,0.2,0.6,0.2,1.2c0,0.6-0.1,1-0.2,1.1c-0.2,0.2-0.4,0.3-0.7,0.3h-2.4
				c-1,0-1.7-0.2-2.1-0.7c-0.4-0.5-0.6-1.3-0.6-2.3V17.4z"/>
			<path class="st0" d="M53.9,24.9c0.6-0.6,1.2-1,1.9-1.4c0.7-0.4,1.6-0.5,2.6-0.5c1.1,0,1.9,0.2,2.7,0.5c0.7,0.3,1.3,0.7,1.8,1.3
				c0.5,0.5,0.8,1.2,1,1.9c0.2,0.7,0.3,1.5,0.3,2.4v0.4c0,0.4,0.2,0.7,0.5,0.9c0.3,0.2,0.7,0.3,1.3,0.3h0.6c0.3,0,0.6,0.1,0.7,0.3
				c0.2,0.2,0.2,0.6,0.2,1.1c0,1-0.3,1.5-1,1.5c-0.7,0-1.3-0.1-1.8-0.3c-0.5-0.2-0.9-0.6-1.2-1.2c-0.3,0.6-0.8,1-1.4,1.2
				c-0.6,0.2-1.3,0.3-2.1,0.3h-7.3c-0.3,0-0.6-0.1-0.7-0.3c-0.2-0.2-0.2-0.6-0.2-1.1s0.1-0.9,0.2-1.1c0.1-0.2,0.4-0.4,0.7-0.4h5.9
				c0.4,0,0.7,0,0.9-0.1c0.2-0.1,0.4-0.2,0.6-0.3c0.1-0.1,0.2-0.3,0.3-0.6c0.1-0.2,0.1-0.5,0.1-0.9c0-0.4,0-0.8-0.1-1.1
				c-0.1-0.4-0.2-0.7-0.4-0.9c-0.2-0.3-0.4-0.5-0.8-0.6s-0.7-0.2-1.2-0.2c-0.5,0-1,0.1-1.4,0.3c-0.4,0.2-0.8,0.5-1.1,0.8
				c-0.1,0.1-0.2,0.1-0.3,0L54,25.3C53.9,25.1,53.9,25,53.9,24.9z"/>
			<path class="st0" d="M74,33.7c-0.8,0-1.6-0.1-2.3-0.3s-1.3-0.6-1.8-1.1c-0.2,0.3-0.5,0.6-0.8,0.7c-0.3,0.2-0.6,0.3-0.9,0.4
				s-0.6,0.1-0.9,0.2c-0.3,0-0.5,0-0.8,0c-0.3,0-0.6-0.1-0.7-0.3c-0.2-0.2-0.2-0.6-0.2-1.1c0-0.6,0.1-0.9,0.2-1.2s0.4-0.3,0.7-0.3
				h0.7c0.4,0,0.7-0.2,1-0.5c0.3-0.3,0.5-0.9,0.5-1.7v-0.5c0-0.9,0.1-1.7,0.4-2.4c0.3-0.6,0.7-1.2,1.2-1.5c0.5-0.4,1-0.7,1.7-0.8
				c0.6-0.2,1.3-0.2,2-0.2c0.7,0,1.4,0.1,2,0.3c0.6,0.2,1.2,0.5,1.7,0.9s0.9,1,1.2,1.7c0.3,0.7,0.4,1.6,0.4,2.6c0,1-0.1,1.8-0.4,2.5
				c-0.3,0.7-0.6,1.2-1.1,1.6c-0.5,0.4-1,0.7-1.7,0.9C75.5,33.6,74.8,33.7,74,33.7z M74,25.9c-1.3,0-2,0.8-2,2.4
				c0,0.9,0.2,1.5,0.5,1.9c0.3,0.4,0.8,0.5,1.5,0.5c0.7,0,1.2-0.2,1.5-0.5c0.3-0.4,0.5-1,0.5-1.9C76,26.7,75.3,25.9,74,25.9z"/>
		</g>
		<g>
			<path class="st0" d="M3.5,43.5c0-0.1,0.1-0.2,0.2-0.2H6c0.2,0,0.3,0.1,0.3,0.2l3.2,7.3h0.1l3.2-7.3c0.1-0.1,0.2-0.2,0.3-0.2h2.2
				c0.1,0,0.2,0.1,0.2,0.2v12.4c0,0.1-0.1,0.2-0.2,0.2h-2.1C13,56.1,13,56,13,55.9v-7.2h-0.1l-2.4,5.4c-0.1,0.2-0.2,0.2-0.4,0.2H8.9
				c-0.2,0-0.3-0.1-0.4-0.2l-2.4-5.4H6v7.2C6,56,6,56.1,5.9,56.1H3.7c-0.1,0-0.2-0.1-0.2-0.2V43.5z"/>
			<path class="st0" d="M23.4,56.1c-0.1,0-0.2-0.1-0.2-0.2v-0.7h0c-0.2,0.3-0.5,0.6-0.9,0.8c-0.4,0.2-0.8,0.3-1.4,0.3
				c-0.5,0-0.9-0.1-1.3-0.3c-0.4-0.2-0.7-0.4-1-0.7c-0.3-0.3-0.5-0.7-0.6-1.1c-0.1-0.4-0.2-0.9-0.2-1.4v-5.7c0-0.1,0.1-0.2,0.2-0.2
				h2.3c0.1,0,0.2,0.1,0.2,0.2v5.3c0,0.5,0.1,0.9,0.3,1.2c0.2,0.3,0.6,0.5,1,0.5c0.5,0,0.8-0.2,1-0.5c0.2-0.3,0.4-0.7,0.4-1.2v-5.3
				c0-0.1,0.1-0.2,0.2-0.2h2.3c0.1,0,0.2,0.1,0.2,0.2v8.7c0,0.1-0.1,0.2-0.2,0.2H23.4z"/>
			<path class="st0" d="M33.9,56.1c-0.1,0-0.2-0.1-0.2-0.2v-5.2c0-0.5-0.1-0.9-0.3-1.2S32.8,49,32.3,49c-0.5,0-0.8,0.2-1.1,0.5
				c-0.3,0.3-0.4,0.7-0.4,1.2v5.2c0,0.1-0.1,0.2-0.2,0.2h-2.3c-0.1,0-0.2-0.1-0.2-0.2V43.5c0-0.1,0.1-0.2,0.2-0.2h2.3
				c0.1,0,0.2,0.1,0.2,0.2v4.3h0c0.2-0.3,0.5-0.5,0.9-0.7c0.4-0.2,0.9-0.3,1.5-0.3c0.5,0,0.9,0.1,1.3,0.2c0.4,0.2,0.7,0.4,1,0.7
				c0.3,0.3,0.5,0.7,0.6,1.1c0.1,0.4,0.2,0.9,0.2,1.4v5.7c0,0.1-0.1,0.2-0.2,0.2H33.9z"/>
			<path class="st0" d="M44,56.1c-0.1,0-0.2-0.1-0.2-0.2v-0.6h0c-0.2,0.3-0.6,0.5-1,0.7c-0.4,0.2-0.9,0.3-1.5,0.3
				c-0.4,0-0.8-0.1-1.2-0.2s-0.7-0.3-1-0.5c-0.3-0.2-0.5-0.5-0.7-0.9c-0.2-0.4-0.2-0.8-0.2-1.3c0-1,0.3-1.7,1-2.2
				c0.7-0.5,1.6-0.7,2.7-0.7h1.6c0.1,0,0.1,0,0.1-0.1v-0.3c0-0.4-0.1-0.7-0.4-0.9c-0.3-0.2-0.8-0.3-1.5-0.3c-0.5,0-0.9,0.1-1.2,0.2
				c-0.3,0.1-0.6,0.3-0.8,0.4c-0.1,0.1-0.2,0.1-0.2,0l-0.8-1.5c-0.1-0.1,0-0.2,0.1-0.3c0.4-0.3,0.9-0.5,1.4-0.7
				c0.6-0.2,1.2-0.2,2-0.2c0.7,0,1.4,0.1,1.9,0.2s0.9,0.3,1.3,0.6c0.3,0.3,0.6,0.6,0.7,1c0.1,0.4,0.2,0.9,0.2,1.5v5.8
				c0,0.1-0.1,0.2-0.2,0.2H44z M42.1,54.3c1.1,0,1.7-0.4,1.7-1.3v-0.6c0-0.1,0-0.1-0.1-0.1h-1.3c-1.1,0-1.6,0.3-1.6,1
				C40.8,54,41.2,54.3,42.1,54.3z"/>
			<path class="st0" d="M59.7,56.1c-0.1,0-0.2-0.1-0.2-0.2v-5.2c0-0.5-0.1-0.9-0.4-1.2S58.6,49,58.1,49c-0.5,0-0.8,0.2-1,0.5
				s-0.4,0.7-0.4,1.2v5.2c0,0.1-0.1,0.2-0.2,0.2h-2.3c-0.1,0-0.2-0.1-0.2-0.2v-5.2c0-0.5-0.1-0.9-0.3-1.2S53.1,49,52.7,49
				c-0.5,0-0.8,0.2-1.1,0.5c-0.3,0.3-0.4,0.7-0.4,1.2v5.2c0,0.1-0.1,0.2-0.2,0.2h-2.3c-0.1,0-0.2-0.1-0.2-0.2v-8.7
				c0-0.1,0.1-0.2,0.2-0.2H51c0.1,0,0.2,0.1,0.2,0.2v0.6h0c0.2-0.3,0.5-0.5,0.9-0.7c0.4-0.2,0.9-0.3,1.5-0.3c1.1,0,1.9,0.4,2.4,1.1
				h0c0.3-0.4,0.7-0.6,1.2-0.8s1-0.3,1.7-0.3c1.1,0,1.9,0.3,2.4,0.9s0.8,1.4,0.8,2.4v5.7c0,0.1-0.1,0.2-0.2,0.2H59.7z"/>
			<path class="st0" d="M68.4,56.3c-1,0-1.9-0.2-2.6-0.7c-0.7-0.5-1.2-1.1-1.4-1.9c-0.1-0.3-0.2-0.6-0.2-0.9
				C64.1,52.4,64,52,64,51.5s0-0.9,0.1-1.2s0.1-0.7,0.2-1c0.3-0.8,0.7-1.5,1.4-1.9c0.7-0.4,1.5-0.7,2.5-0.7c1,0,1.9,0.2,2.5,0.7
				c0.7,0.5,1.1,1.1,1.4,1.9c0.1,0.2,0.1,0.3,0.1,0.5c0,0.2,0.1,0.4,0.1,0.6c0,0.2,0,0.5,0.1,0.7c0,0.3,0,0.6,0,1
				c0,0.1-0.1,0.2-0.2,0.2h-5.5c-0.1,0-0.1,0-0.1,0.1c0,0.2,0.1,0.4,0.1,0.5c0.1,0.4,0.4,0.7,0.7,0.9c0.3,0.2,0.7,0.3,1.2,0.3
				c0.5,0,0.8-0.1,1.2-0.2c0.3-0.1,0.6-0.3,0.9-0.6c0.1-0.1,0.2-0.1,0.3,0l1.2,1.2c0.1,0.1,0.1,0.2,0,0.3c-0.4,0.5-1,0.8-1.6,1.1
				C70,56.1,69.2,56.3,68.4,56.3z M69.8,50.6c0.1,0,0.1,0,0.1-0.1c0-0.1,0-0.3,0-0.4c0-0.1,0-0.2-0.1-0.3c-0.1-0.3-0.3-0.6-0.6-0.7
				s-0.6-0.3-1-0.3s-0.7,0.1-1,0.3s-0.5,0.4-0.6,0.7c0,0.1,0,0.2-0.1,0.3c0,0.1,0,0.2,0,0.4c0,0.1,0,0.1,0.1,0.1H69.8z"/>
			<path class="st0" d="M80.3,56.1c-0.1,0-0.2-0.1-0.3-0.2l-2-3.7l-0.9,1.2v2.5c0,0.1-0.1,0.2-0.2,0.2h-2.3c-0.1,0-0.2-0.1-0.2-0.2
				V43.5c0-0.1,0.1-0.2,0.2-0.2h2.3c0.1,0,0.2,0.1,0.2,0.2v6.9l2.6-3.2C79.8,47,79.9,47,80,47h2.4c0.1,0,0.1,0,0.1,0.1
				c0,0,0,0.1,0,0.1l-2.8,3.2l3.2,5.5c0,0,0,0.1,0,0.1c0,0-0.1,0.1-0.1,0.1H80.3z"/>
		</g>
	</g>
</g>
</svg>
